<?xml version="1.0" encoding="UTF-8"?>
<svg id="Calque_2" data-name="Calque 2" xmlns="http://www.w3.org/2000/svg" xmlns:xlink="http://www.w3.org/1999/xlink" viewBox="0 0 38.06 37.61">
  <defs>
    <style>
      .cls-1 {
        fill: none;
      }

      .cls-2 {
        fill: #fff;
      }

      .cls-3 {
        clip-path: url(#clippath);
      }
    </style>
    <clipPath id="clippath">
      <rect class="cls-1" width="38.06" height="37.61"/>
    </clipPath>
  </defs>
  <g id="Calque_1-2" data-name="Calque 1">
    <g class="cls-3">
      <path class="cls-2" d="M34.8,26.49l-7.86.03.1,7.8c.04,3.4-4.44,4.54-6.28,1.61l-4.24-6.74-6.77,3.71c-2.95,1.62-6.35-1.7-4.77-4.65l3.63-6.77-6.86-4.09c-2.99-1.78-1.91-6.24,1.52-6.26l7.86-.03-.1-7.8c-.04-3.4,4.44-4.54,6.28-1.61l4.24,6.74,6.77-3.71c2.95-1.62,6.35,1.7,4.77,4.65-1.21,2.25-2.41,4.51-3.62,6.76h0c2.29,1.38,4.58,2.74,6.86,4.1,2.99,1.78,1.91,6.24-1.52,6.26"/>
    </g>
  </g>
</svg>